<svg xmlns="http://www.w3.org/2000/svg" viewBox="0 0 200 200"><defs><style>.cls-1{fill:none;}</style></defs><g id="Layer_2" data-name="Layer 2"><g id="Layer_1-2" data-name="Layer 1"><rect class="cls-1" width="200" height="200"/><path d="M69.85,152.21c-5.71-4.49-11.8-8.8-16-14.86a120.66,120.66,0,0,1-20.12-36.08C31,92.81,30,83.74,26.44,75.6c-3.76-5.9.65-12.36,7.12-14.23,2.88-.56,7.94-3.28,1.83-1.33-5.49,4-6-3.66-.39-4.14,3.83-.51,5.24-3.65,3.93-6.48-4.12-2.68,10-5.63,2.89-9.64-7.39-8,10.34-9.51,6-.45-1,7,12.4-1.28,9.28,6.76,3.17,3.87,11.87.88,11.65,6.3,4.61.32,6.2,4.2,10.53,4.5,4.49,2,12.63,3.63,14.16,8.69C89,69.1,78.63,58.29,78.13,68.05c1.35,14.43,1,29.29,6.28,43,2.5,8.31,8.55,14.86,14,21.34,5.23,6.34,12.32,10.81,19.54,14.57A81.05,81.05,0,0,0,138,153.2c2.8-2.14,7.74-10.1,12.11-6.75.21,3.78-8.67,7.89-.42,7.47,4.85-1.46,8.2,3.75,12.19-.95,3.68,4.35,15.28-2.78,12.66,6.12-3.53,2.28-8.69.9-12.23,4-5.84-2.92-10.49,2.61-17,1.91a124,124,0,0,1-21.76,1.81c-11.94-.94-24.13-1.33-35.49-5.49-6.4-1.86-12.65-5.51-18.27-9.15Zm10.08,4.37c6.25,2.7,12.36,5.55,19.21,6.41,10.87,1.51,22.09,3.83,33,1.71-4.93-2.22-10,.87-14.95-1.59-5.9,1.27-12.23-.32-18.22-1.11-6.82-3-14.18-5.12-20.56-9.07-8-2.91,4.12,3.74,6.28,4.28,5,2.83-5.48-1.45-7-2.63-4.18-2.34-4.71-1.85-.41.53.86.5,1.72,1,2.62,1.47ZM68,148.18c6.06,2.24,0-4.26-2.8-3.89-1.23-2.13-4.7-3.48-2.25-4.62-4.4,1.53-4.61-5.81-6.68-4.76-4.65-1.47-1.81-6.68-7.35-9.88-.51-3.37-5.51-6.29-7.11-11.37-.7-2.6-5.65-10.07-2.61-3.12,2.59,6.69,7.14,12.43,10.93,18.15,2.94,5.45,6.42,11.15,11.77,14.55,1.81,1.74,3.55,4.39,6.1,4.94Zm26.68,11.26c2.48,1.56,14.48,3.43,7,.64C100.43,160.34,87.75,156.49,94.72,159.44ZM67.31,137.18c2.91,2.23,11.74.29,4.45-1.33-3.31-1.77-10.78-3-5.69,1.06Zm14.08,7.47c7.12,2-6-4.51-1.75-.75l.94.43Zm.07-3.77c5.16.66-6.16-3.52-1.14-.38Zm18,11c4.83-2.88,3.24,6.76,8.19.82,4.89-3.57-4.22,4.41,1.8.63,4.36-2.91,10.79,1.38,14.85,2.78,2.92-.14,5.76,2.53,8.76.9,5.77-1.55-11.28-2.3-6.81-5.05-5.28,1.53-9.17-1.83-11.77-5.21-5.92-1.37-12.76-4.4-15.72-9.64-1.2-2,1.74.28-1-2.93-3.56-3.17-5.34-6.78-7.74-10.63-2.86-1.53-3.19-6-3.48-.15,0-3.7-3.45-6.2-4.3-5.16,0-3.57,3.72-1.78,1.1-4.42-.56-3.69-2.41-7.54-3-11.72-.86-2-.12-6.31-3-1.76-1,4.81-.34-5.91,1.26-2.38,2.11-3.6-.76-3.18-.87-2.68,1.37-3,.87-7.36-.36-5.72.73-3.23,1.15-11.87-1.09-10.34,1.36-3.38,2.58-15.44-3.34-10.84a25.15,25.15,0,0,0-8.51,1.84c6.15,3.4-.62,1.23-3.13.69-.32,3.14-2.8,1.78-5.9,1.81,5,.62-2.42,5.07-5.25,3.34-3.69,1.76,3.18,6.16.07,7.52.38,2-5.65-.74-5.18,4-3.58-1.51-.49,5.62,1.3,3.21,6.09,1.65,4.29,5.41,4.44,9-1,2.08-4.9-4.89-.87-4.57-3.18-5.16-3.52-1.87-6.16.53-.61.18,6.74,3.42,2.13,5,4.06.63,4.17,4.18,5,6.43,2.44,2.54,1.94-2.81,4.86.25-1.85-2.73-9.79-7.67-3.4-6.09,0-2.73-1.15-4.94.81-4.89,1.94-3.51-2,8.66,2.34,4.2,1.21-.53,1.51-3.52,3.68.28,3.16,3.11,1.15,5.36-3.31,2.51.8,2.71,6,3.67,5,7.9,1,3.72,2.47,2.35,3.72,2.14,1,3.61,1.55,1,1.59-.77,4.51,1,3.45,3.63,4.86,5.49,3.11,1.4-4.44-9.5.89-3.27,5.61,5.06,2.1,7.17-2.93,6.36,3.18-.25,4.21,4.31,8.2,4.15,3.63,1.73,6.09,8.37-.17,5.6-2.17-2-9.87-4.37-3.58-.65,5.79,2.69,10.4,4.3,16,7.67,4,2.86,5.73,6.13,7.25,6.78-3.37,1.6-10.14-1.29-5.11-2.17-3.14-.57-6.67-2.16-3.67,1.75,2.56,2.13,9.06,1.91,10.23,2.15-1,2.17-2.69,2.35,0,2.52-3,1.61,1,1.87,1.26,2.79Zm-6.21-17.54c-1.85-1.93-2.33-5.55-.33-2.4C93.91,132.39,96.16,137.89,93.21,134.38ZM81.36,114.87c-2.2-4.93,1.57-2.69.49.81ZM61.09,101.36c-1-1.62-2.61-6.37-2.08-7.82.47,2.36,5,10.16,2.22,3.23-3.08-5.81,3.69,1.88,4.39,3.33.32,1.44-1.91-.39-.4,3C62.47,99.24,63.6,105.22,61.09,101.36Zm-10.22-8.6c-2.34-2.32-4-4.45.11-1.44,1.59.07-3.54-4.85.38-1.56,4.12.75,2,6.76-.49,3Zm1.39-3.55c-6.78-6,8.52,3.16,1.11,1.12ZM71.69,100.5c-2.93-1.76-.78-12.39.23-5.12,2.85-.92-.16,3.76,2,3.71C73.55,102,72.6,103.1,71.69,100.5ZM53.59,87.23c-4.35-6,12.66,6.08,2.79,1.52C55.35,88.48,54.11,88.38,53.59,87.23Zm.67-2.3c2.59-.55,10.73,4.55,3.26,1.46-.83-.92-2.61-.5-3.26-1.46ZM76.49,96c.28-5.17,1.55-3.08,0,.75l0-.75ZM56.19,83.13c1.05-1.55-2.81-7,.55-1.95,1.45,1.15,4.2,1.93,1.78,2.41C62.33,87,57.59,84.51,56.19,83.13Zm16.87-2.77c-1.34-2.37,1.7-10.45,2-5.44-1.42,3.9-.41,6.09.58.85,1.83-4.12-.39,8.14-2.62,4.59Zm5.58,57.77c3.86,1,3.84-.6.35-1.07-1.87-1.74-7.78-3.59-2.49-.22C76.85,137.73,78,137.71,78.64,138.13ZM65,129c2.12,1.59,8,4.49,3,.61,1.68-2-3.21-3-1.59-4.3-4.12-2.52-3.25-2.29-.36-2.21-5-2.22.72-2,.45-3.19-1.91-.37-9.49-3.37-5,.25-4.54-2.31-1.08.86-2.45.52-4.64-1.26,4.13,3.54-.74,2.34,2.66,2.11,7.16,5.4,1.12,2.23-.79,1.15,4.32,2.88,5.58,3.75Zm48.16,28.24c2-2,.08,3.14,3.37-.48,0-2.59-.1-4.12-3.78-1-1,.56-1.46,2.95.41,1.45Zm-33.3-21.37c2.27,2,10.39,1.47,2.75.25C81.44,134.48,75.39,134.89,79.82,135.91Zm-37.25-25c-3.28-4.69-2-6.8-5.21-10.63-.6-2.92-5.43-9.56-2.5-2.53,2.69,4.12,3.49,10.49,7.71,13.16ZM122,158.61c3.44-2.21-.79-1.87-.62.2Zm5.52,1.5c4.41-3.18-2.67-.61-.92.6ZM53.59,113c3.23.72,12.91,8,7.2.5-2.93-.87-1.17-8-4.15-6.75,2,3.35,1.64,4.77-2.56,2.66-5.28-2.58-3,1.28-1.94,2.34-1.4.32,1.87,1.22,1.45,1.25ZM38.88,101.38c.58-2.39-5.33-13.16-2.79-5.4C37,97.61,36.91,100.69,38.88,101.38Zm101,55.77c3.2-.65,10.48,1.63,11.66-.85-3.88-.09-13.43-2.74-13.88.63l.85.14,1.37.08ZM40.35,87.64c3.22-1.27-5.87-2.62-.66-.24ZM30.28,76.38c-.58-3.34-.5-9.2,5.07-7.22-7.43,1.48,5.15,9.24,3.56,3.11,3.13.15,6.12-1.85,4.48,1.19,6.16-.68,10.43-6,16.38-5.28,4.64-.61,9.71-1.07,14.71-2.94,4.1-.3,8.06-4.72,5.81-7.34a63.1,63.1,0,0,0-17.66,1.46c-6.86,1.42-13.09,4.13-20,5.29-6.75.91,1.36,2.5-.57,2.86-3.52,1.22,4.2,2-.46,3.33-2.87-.55-5.87-1.53-4.64-4.57-6.46.85-12.14,3.53-7,10.1Zm15.58-7.94c1.51-5.58,8.12,4.6,2.48.75A3.51,3.51,0,0,0,45.86,68.44Zm3.07-2.66c.2-2.56,6.36,1.36,1,.93l-1-.93Zm4.77-2.17c2.32-2.78,13.08-1.78,5.2-.28-2.11-1.59-3.73.94-5.2.28Zm18-2.19c1.46-3.83,5.66-1.54.68-.77C72.53,61.06,72.28,62.62,71.75,61.42Zm93.8,95.78c3.48,0,10.55-1.08,3-1.08C167.34,156.3,161.6,156.27,165.55,157.2ZM45.61,81c2.82-.19,4.41-3.11-.54-2.94-7.68-.79,6.77,2.63-1,1.65C43,80.41,45.55,81.2,45.61,81ZM41.67,58.75c5-1.7,11.9-3.62,14.28.85-2.42-2.91-1-5.77,1.3-1.52,3.23,4.3,4.84-1.95,2.75-3.4,2.39,3,5.11,4.38,1.6.19,3.81-4.59-7.64.6-10.24.55-1.26.56-12.94,3-9.69,3.33Zm2.94-5.64C47.48,51,54.53,54.4,50,51,49.56,50.57,40.1,53.57,44.61,53.11Zm10.46.43c3.35.09-1.45-4.51,2.55-2.42C57,49,53,48.57,51,47.71,49.9,49.67,53.26,53.57,55.07,53.54Zm-4.35-8.47c5.41-.71-1.38-2.32-1.09,0l1.09,0Zm-8-6.24c-3.81-5,7.16.84,3.29-4.37-3.25-2.59-6.38,2.92-3.29,4.37ZM91.61,65.16c1.75-3.1-7.21-4.18-1.17-1.1.55.18.43,1.31,1.17,1.1Z"/></g></g></svg>