<svg id="WordPress" xmlns="http://www.w3.org/2000/svg" width="32" height="32" viewBox="0 0 32 32">
  <path id="Path_5941" data-name="Path 5941" d="M8.708,45.458a13.729,13.729,0,0,0,7.738,12.354L9.9,39.872A13.674,13.674,0,0,0,8.708,45.458Z" transform="translate(-6.434 -29.458)" fill="#464342"/>
  <path id="Path_5942" data-name="Path 5942" d="M38.086,21.741a7.227,7.227,0,0,0-1.132-3.785,6.425,6.425,0,0,1-1.348-3.219,2.377,2.377,0,0,1,2.3-2.436c.061,0,.119.008.178.011A13.723,13.723,0,0,0,17.347,14.9c.322.01.626.016.883.016,1.436,0,3.658-.174,3.658-.174a.567.567,0,1,1,.088,1.131s-.744.087-1.571.131l5,14.867,3-9.009L26.274,16c-.739-.043-1.439-.131-1.439-.131a.567.567,0,0,1,.087-1.131s2.267.174,3.615.174c1.435,0,3.658-.174,3.658-.174a.567.567,0,0,1,.088,1.131s-.745.087-1.571.131l4.96,14.755,1.369-4.575a16.581,16.581,0,0,0,1.045-4.439Z" transform="translate(-12.82 -6.434)" fill="#464342"/>
  <path id="Path_5943" data-name="Path 5943" d="M50.534,65.857,46.416,77.824a13.732,13.732,0,0,0,8.435-.219,1.2,1.2,0,0,1-.1-.189Z" transform="translate(-34.293 -48.657)" fill="#464342"/>
  <path id="Path_5944" data-name="Path 5944" d="M92.825,36.046a10.531,10.531,0,0,1,.092,1.411,12.948,12.948,0,0,1-1.044,4.916L87.681,54.5a13.728,13.728,0,0,0,5.144-18.45Z" transform="translate(-64.781 -26.632)" fill="#464342"/>
  <path id="Path_5945" data-name="Path 5945" d="M16,0A16,16,0,1,0,32,16,16,16,0,0,0,16,0Zm0,31.267A15.266,15.266,0,1,1,31.266,16,15.266,15.266,0,0,1,16,31.267Z" fill="#464342"/>
</svg>
